<mxfile host="app.diagrams.net" modified="2023-12-06T10:33:40.742Z" agent="Mozilla/5.0 (Windows NT 10.0; Win64; x64) AppleWebKit/537.36 (KHTML, like Gecko) Chrome/119.0.0.0 Safari/537.36" etag="ImLBe47KdKlBX6p2i-Lp" version="22.1.5" type="device">
  <diagram id="C5RBs43oDa-KdzZeNtuy" name="Page-1">
    <mxGraphModel dx="1120" dy="478" grid="1" gridSize="10" guides="1" tooltips="1" connect="1" arrows="1" fold="1" page="1" pageScale="1" pageWidth="827" pageHeight="1169" math="0" shadow="0">
      <root>
        <mxCell id="WIyWlLk6GJQsqaUBKTNV-0" />
        <mxCell id="WIyWlLk6GJQsqaUBKTNV-1" parent="WIyWlLk6GJQsqaUBKTNV-0" />
        <mxCell id="Fk6wbNM34HIAYSVCCVMZ-2" value="" style="edgeStyle=orthogonalEdgeStyle;rounded=0;orthogonalLoop=1;jettySize=auto;html=1;" parent="WIyWlLk6GJQsqaUBKTNV-1" source="Fk6wbNM34HIAYSVCCVMZ-0" target="Fk6wbNM34HIAYSVCCVMZ-1" edge="1">
          <mxGeometry relative="1" as="geometry" />
        </mxCell>
        <mxCell id="Fk6wbNM34HIAYSVCCVMZ-0" value="start" style="ellipse;whiteSpace=wrap;html=1;" parent="WIyWlLk6GJQsqaUBKTNV-1" vertex="1">
          <mxGeometry x="320" y="40" width="120" height="80" as="geometry" />
        </mxCell>
        <mxCell id="Fk6wbNM34HIAYSVCCVMZ-4" value="" style="edgeStyle=orthogonalEdgeStyle;rounded=0;orthogonalLoop=1;jettySize=auto;html=1;" parent="WIyWlLk6GJQsqaUBKTNV-1" source="Fk6wbNM34HIAYSVCCVMZ-1" target="Fk6wbNM34HIAYSVCCVMZ-3" edge="1">
          <mxGeometry relative="1" as="geometry" />
        </mxCell>
        <mxCell id="Fk6wbNM34HIAYSVCCVMZ-1" value="&lt;div&gt;struct book {&lt;/div&gt;&lt;div&gt;int code;&lt;span style=&quot;&quot;&gt;&lt;/span&gt;&lt;/div&gt;&lt;div&gt;&lt;span style=&quot;&quot;&gt;&lt;span style=&quot;&quot;&gt;&lt;span style=&quot;white-space: pre;&quot;&gt;&amp;nbsp;&amp;nbsp;&amp;nbsp;&amp;nbsp;&lt;/span&gt;&lt;/span&gt;char title[50];&lt;/span&gt;&lt;/div&gt;&lt;div&gt;&lt;span style=&quot;&quot;&gt;&lt;span style=&quot;&quot;&gt;&lt;span style=&quot;white-space: pre;&quot;&gt;&amp;nbsp;&amp;nbsp;&amp;nbsp;&amp;nbsp;&lt;/span&gt;&lt;/span&gt;char author[50];&lt;/span&gt;&lt;/div&gt;&lt;div&gt;&lt;span style=&quot;&quot;&gt;&lt;span style=&quot;&quot;&gt;&lt;span style=&quot;white-space: pre;&quot;&gt;&amp;nbsp;&amp;nbsp;&amp;nbsp;&amp;nbsp;&lt;/span&gt;&lt;/span&gt;float price;&lt;/span&gt;&lt;/div&gt;&lt;div&gt;&lt;span style=&quot;&quot;&gt;&lt;span style=&quot;&quot;&gt;&lt;span style=&quot;white-space: pre;&quot;&gt;&amp;nbsp;&amp;nbsp;&amp;nbsp;&amp;nbsp;&lt;/span&gt;&lt;/span&gt;char category[50];&lt;/span&gt;&lt;/div&gt;&lt;div&gt;};&lt;/div&gt;" style="rounded=0;whiteSpace=wrap;html=1;" parent="WIyWlLk6GJQsqaUBKTNV-1" vertex="1">
          <mxGeometry x="300" y="160" width="160" height="120" as="geometry" />
        </mxCell>
        <mxCell id="Fk6wbNM34HIAYSVCCVMZ-6" value="" style="edgeStyle=orthogonalEdgeStyle;rounded=0;orthogonalLoop=1;jettySize=auto;html=1;" parent="WIyWlLk6GJQsqaUBKTNV-1" source="Fk6wbNM34HIAYSVCCVMZ-3" target="Fk6wbNM34HIAYSVCCVMZ-5" edge="1">
          <mxGeometry relative="1" as="geometry" />
        </mxCell>
        <mxCell id="Fk6wbNM34HIAYSVCCVMZ-3" value="struct book books[100];&lt;br&gt;&amp;nbsp; &amp;nbsp; numOfBooks=0;&lt;br&gt;choice" style="rounded=0;whiteSpace=wrap;html=1;" parent="WIyWlLk6GJQsqaUBKTNV-1" vertex="1">
          <mxGeometry x="310" y="320" width="140" height="80" as="geometry" />
        </mxCell>
        <mxCell id="Fk6wbNM34HIAYSVCCVMZ-8" value="" style="edgeStyle=orthogonalEdgeStyle;rounded=0;orthogonalLoop=1;jettySize=auto;html=1;" parent="WIyWlLk6GJQsqaUBKTNV-1" source="Fk6wbNM34HIAYSVCCVMZ-5" target="Fk6wbNM34HIAYSVCCVMZ-7" edge="1">
          <mxGeometry relative="1" as="geometry" />
        </mxCell>
        <mxCell id="Fk6wbNM34HIAYSVCCVMZ-5" value="MENU" style="shape=parallelogram;perimeter=parallelogramPerimeter;whiteSpace=wrap;html=1;fixedSize=1;" parent="WIyWlLk6GJQsqaUBKTNV-1" vertex="1">
          <mxGeometry x="320" y="440" width="120" height="60" as="geometry" />
        </mxCell>
        <mxCell id="Fk6wbNM34HIAYSVCCVMZ-10" value="" style="edgeStyle=orthogonalEdgeStyle;rounded=0;orthogonalLoop=1;jettySize=auto;html=1;" parent="WIyWlLk6GJQsqaUBKTNV-1" source="Fk6wbNM34HIAYSVCCVMZ-7" target="Fk6wbNM34HIAYSVCCVMZ-9" edge="1">
          <mxGeometry relative="1" as="geometry" />
        </mxCell>
        <mxCell id="Fk6wbNM34HIAYSVCCVMZ-13" value="" style="edgeStyle=orthogonalEdgeStyle;rounded=0;orthogonalLoop=1;jettySize=auto;html=1;" parent="WIyWlLk6GJQsqaUBKTNV-1" source="Fk6wbNM34HIAYSVCCVMZ-7" target="Fk6wbNM34HIAYSVCCVMZ-12" edge="1">
          <mxGeometry relative="1" as="geometry" />
        </mxCell>
        <mxCell id="Fk6wbNM34HIAYSVCCVMZ-7" value="choice==1" style="rhombus;whiteSpace=wrap;html=1;" parent="WIyWlLk6GJQsqaUBKTNV-1" vertex="1">
          <mxGeometry x="340" y="560" width="80" height="80" as="geometry" />
        </mxCell>
        <mxCell id="wttWlPiqS7Xxt9XiYohA-2" style="edgeStyle=orthogonalEdgeStyle;rounded=0;orthogonalLoop=1;jettySize=auto;html=1;" edge="1" parent="WIyWlLk6GJQsqaUBKTNV-1" source="Fk6wbNM34HIAYSVCCVMZ-9">
          <mxGeometry relative="1" as="geometry">
            <mxPoint x="800" y="600" as="targetPoint" />
          </mxGeometry>
        </mxCell>
        <mxCell id="Fk6wbNM34HIAYSVCCVMZ-9" value="inputBooks(books,&amp;amp;numOfBooks)" style="shape=process;whiteSpace=wrap;html=1;backgroundOutline=1;" parent="WIyWlLk6GJQsqaUBKTNV-1" vertex="1">
          <mxGeometry x="490" y="570" width="240" height="60" as="geometry" />
        </mxCell>
        <mxCell id="Fk6wbNM34HIAYSVCCVMZ-11" value="true" style="text;html=1;align=center;verticalAlign=middle;resizable=0;points=[];autosize=1;strokeColor=none;fillColor=none;" parent="WIyWlLk6GJQsqaUBKTNV-1" vertex="1">
          <mxGeometry x="430" y="570" width="40" height="30" as="geometry" />
        </mxCell>
        <mxCell id="Fk6wbNM34HIAYSVCCVMZ-15" value="" style="edgeStyle=orthogonalEdgeStyle;rounded=0;orthogonalLoop=1;jettySize=auto;html=1;" parent="WIyWlLk6GJQsqaUBKTNV-1" source="Fk6wbNM34HIAYSVCCVMZ-12" target="Fk6wbNM34HIAYSVCCVMZ-14" edge="1">
          <mxGeometry relative="1" as="geometry" />
        </mxCell>
        <mxCell id="Fk6wbNM34HIAYSVCCVMZ-18" value="" style="edgeStyle=orthogonalEdgeStyle;rounded=0;orthogonalLoop=1;jettySize=auto;html=1;" parent="WIyWlLk6GJQsqaUBKTNV-1" source="Fk6wbNM34HIAYSVCCVMZ-12" target="Fk6wbNM34HIAYSVCCVMZ-17" edge="1">
          <mxGeometry relative="1" as="geometry" />
        </mxCell>
        <mxCell id="Fk6wbNM34HIAYSVCCVMZ-12" value="choice==2" style="rhombus;whiteSpace=wrap;html=1;" parent="WIyWlLk6GJQsqaUBKTNV-1" vertex="1">
          <mxGeometry x="340" y="690" width="80" height="80" as="geometry" />
        </mxCell>
        <mxCell id="wttWlPiqS7Xxt9XiYohA-1" style="edgeStyle=orthogonalEdgeStyle;rounded=0;orthogonalLoop=1;jettySize=auto;html=1;" edge="1" parent="WIyWlLk6GJQsqaUBKTNV-1" source="Fk6wbNM34HIAYSVCCVMZ-14">
          <mxGeometry relative="1" as="geometry">
            <mxPoint x="800" y="730" as="targetPoint" />
          </mxGeometry>
        </mxCell>
        <mxCell id="Fk6wbNM34HIAYSVCCVMZ-14" value="saveFile(books,numOfBooks)" style="shape=process;whiteSpace=wrap;html=1;backgroundOutline=1;" parent="WIyWlLk6GJQsqaUBKTNV-1" vertex="1">
          <mxGeometry x="490" y="700" width="240" height="60" as="geometry" />
        </mxCell>
        <mxCell id="Fk6wbNM34HIAYSVCCVMZ-16" value="true" style="text;html=1;align=center;verticalAlign=middle;resizable=0;points=[];autosize=1;strokeColor=none;fillColor=none;" parent="WIyWlLk6GJQsqaUBKTNV-1" vertex="1">
          <mxGeometry x="430" y="700" width="40" height="30" as="geometry" />
        </mxCell>
        <mxCell id="Fk6wbNM34HIAYSVCCVMZ-20" value="" style="edgeStyle=orthogonalEdgeStyle;rounded=0;orthogonalLoop=1;jettySize=auto;html=1;" parent="WIyWlLk6GJQsqaUBKTNV-1" source="Fk6wbNM34HIAYSVCCVMZ-17" target="Fk6wbNM34HIAYSVCCVMZ-19" edge="1">
          <mxGeometry relative="1" as="geometry" />
        </mxCell>
        <mxCell id="Fk6wbNM34HIAYSVCCVMZ-23" value="" style="edgeStyle=orthogonalEdgeStyle;rounded=0;orthogonalLoop=1;jettySize=auto;html=1;" parent="WIyWlLk6GJQsqaUBKTNV-1" source="Fk6wbNM34HIAYSVCCVMZ-17" target="Fk6wbNM34HIAYSVCCVMZ-22" edge="1">
          <mxGeometry relative="1" as="geometry" />
        </mxCell>
        <mxCell id="Fk6wbNM34HIAYSVCCVMZ-17" value="choice==3" style="rhombus;whiteSpace=wrap;html=1;" parent="WIyWlLk6GJQsqaUBKTNV-1" vertex="1">
          <mxGeometry x="340" y="820" width="80" height="80" as="geometry" />
        </mxCell>
        <mxCell id="wttWlPiqS7Xxt9XiYohA-0" style="edgeStyle=orthogonalEdgeStyle;rounded=0;orthogonalLoop=1;jettySize=auto;html=1;" edge="1" parent="WIyWlLk6GJQsqaUBKTNV-1" source="Fk6wbNM34HIAYSVCCVMZ-19">
          <mxGeometry relative="1" as="geometry">
            <mxPoint x="380" y="410" as="targetPoint" />
            <Array as="points">
              <mxPoint x="801" y="860" />
            </Array>
          </mxGeometry>
        </mxCell>
        <mxCell id="Fk6wbNM34HIAYSVCCVMZ-19" value="displayBooksFile()" style="shape=process;whiteSpace=wrap;html=1;backgroundOutline=1;" parent="WIyWlLk6GJQsqaUBKTNV-1" vertex="1">
          <mxGeometry x="490" y="830" width="240" height="60" as="geometry" />
        </mxCell>
        <mxCell id="Fk6wbNM34HIAYSVCCVMZ-21" value="true" style="text;html=1;align=center;verticalAlign=middle;resizable=0;points=[];autosize=1;strokeColor=none;fillColor=none;" parent="WIyWlLk6GJQsqaUBKTNV-1" vertex="1">
          <mxGeometry x="430" y="830" width="40" height="30" as="geometry" />
        </mxCell>
        <mxCell id="Fk6wbNM34HIAYSVCCVMZ-25" value="" style="edgeStyle=orthogonalEdgeStyle;rounded=0;orthogonalLoop=1;jettySize=auto;html=1;" parent="WIyWlLk6GJQsqaUBKTNV-1" source="Fk6wbNM34HIAYSVCCVMZ-22" target="Fk6wbNM34HIAYSVCCVMZ-24" edge="1">
          <mxGeometry relative="1" as="geometry" />
        </mxCell>
        <mxCell id="Fk6wbNM34HIAYSVCCVMZ-27" style="edgeStyle=orthogonalEdgeStyle;rounded=0;orthogonalLoop=1;jettySize=auto;html=1;" parent="WIyWlLk6GJQsqaUBKTNV-1" source="Fk6wbNM34HIAYSVCCVMZ-22" edge="1">
          <mxGeometry relative="1" as="geometry">
            <mxPoint x="380" y="410" as="targetPoint" />
            <Array as="points">
              <mxPoint x="280" y="990" />
            </Array>
          </mxGeometry>
        </mxCell>
        <mxCell id="Fk6wbNM34HIAYSVCCVMZ-22" value="choice==4" style="rhombus;whiteSpace=wrap;html=1;" parent="WIyWlLk6GJQsqaUBKTNV-1" vertex="1">
          <mxGeometry x="340" y="950" width="80" height="80" as="geometry" />
        </mxCell>
        <mxCell id="Fk6wbNM34HIAYSVCCVMZ-24" value="end" style="ellipse;whiteSpace=wrap;html=1;" parent="WIyWlLk6GJQsqaUBKTNV-1" vertex="1">
          <mxGeometry x="490" y="950" width="120" height="80" as="geometry" />
        </mxCell>
        <mxCell id="Fk6wbNM34HIAYSVCCVMZ-26" value="true" style="text;html=1;align=center;verticalAlign=middle;resizable=0;points=[];autosize=1;strokeColor=none;fillColor=none;" parent="WIyWlLk6GJQsqaUBKTNV-1" vertex="1">
          <mxGeometry x="430" y="958" width="40" height="30" as="geometry" />
        </mxCell>
        <mxCell id="Fk6wbNM34HIAYSVCCVMZ-28" value="false" style="text;html=1;align=center;verticalAlign=middle;resizable=0;points=[];autosize=1;strokeColor=none;fillColor=none;" parent="WIyWlLk6GJQsqaUBKTNV-1" vertex="1">
          <mxGeometry x="335" y="510" width="50" height="30" as="geometry" />
        </mxCell>
        <mxCell id="Fk6wbNM34HIAYSVCCVMZ-29" value="false" style="text;html=1;align=center;verticalAlign=middle;resizable=0;points=[];autosize=1;strokeColor=none;fillColor=none;" parent="WIyWlLk6GJQsqaUBKTNV-1" vertex="1">
          <mxGeometry x="335" y="648" width="50" height="30" as="geometry" />
        </mxCell>
        <mxCell id="Fk6wbNM34HIAYSVCCVMZ-30" value="false" style="text;html=1;align=center;verticalAlign=middle;resizable=0;points=[];autosize=1;strokeColor=none;fillColor=none;" parent="WIyWlLk6GJQsqaUBKTNV-1" vertex="1">
          <mxGeometry x="335" y="780" width="50" height="30" as="geometry" />
        </mxCell>
        <mxCell id="Fk6wbNM34HIAYSVCCVMZ-31" value="false" style="text;html=1;align=center;verticalAlign=middle;resizable=0;points=[];autosize=1;strokeColor=none;fillColor=none;" parent="WIyWlLk6GJQsqaUBKTNV-1" vertex="1">
          <mxGeometry x="335" y="908" width="50" height="30" as="geometry" />
        </mxCell>
        <mxCell id="Fk6wbNM34HIAYSVCCVMZ-32" value="false" style="text;html=1;align=center;verticalAlign=middle;resizable=0;points=[];autosize=1;strokeColor=none;fillColor=none;" parent="WIyWlLk6GJQsqaUBKTNV-1" vertex="1">
          <mxGeometry x="225" y="708" width="50" height="30" as="geometry" />
        </mxCell>
        <mxCell id="Fk6wbNM34HIAYSVCCVMZ-35" value="" style="edgeStyle=orthogonalEdgeStyle;rounded=0;orthogonalLoop=1;jettySize=auto;html=1;" parent="WIyWlLk6GJQsqaUBKTNV-1" source="Fk6wbNM34HIAYSVCCVMZ-33" target="Fk6wbNM34HIAYSVCCVMZ-34" edge="1">
          <mxGeometry relative="1" as="geometry" />
        </mxCell>
        <mxCell id="Fk6wbNM34HIAYSVCCVMZ-33" value="void inputBooks(struct book books[],int *numOfBooks)" style="rounded=0;whiteSpace=wrap;html=1;" parent="WIyWlLk6GJQsqaUBKTNV-1" vertex="1">
          <mxGeometry x="840" y="100" width="300" height="60" as="geometry" />
        </mxCell>
        <mxCell id="Fk6wbNM34HIAYSVCCVMZ-37" value="" style="edgeStyle=orthogonalEdgeStyle;rounded=0;orthogonalLoop=1;jettySize=auto;html=1;" parent="WIyWlLk6GJQsqaUBKTNV-1" source="Fk6wbNM34HIAYSVCCVMZ-34" target="Fk6wbNM34HIAYSVCCVMZ-36" edge="1">
          <mxGeometry relative="1" as="geometry" />
        </mxCell>
        <mxCell id="Fk6wbNM34HIAYSVCCVMZ-34" value="scanf(&quot;%d&quot;,numOfBooks)" style="shape=parallelogram;perimeter=parallelogramPerimeter;whiteSpace=wrap;html=1;fixedSize=1;" parent="WIyWlLk6GJQsqaUBKTNV-1" vertex="1">
          <mxGeometry x="900" y="200" width="180" height="60" as="geometry" />
        </mxCell>
        <mxCell id="Fk6wbNM34HIAYSVCCVMZ-39" value="" style="edgeStyle=orthogonalEdgeStyle;rounded=0;orthogonalLoop=1;jettySize=auto;html=1;" parent="WIyWlLk6GJQsqaUBKTNV-1" source="Fk6wbNM34HIAYSVCCVMZ-36" target="Fk6wbNM34HIAYSVCCVMZ-38" edge="1">
          <mxGeometry relative="1" as="geometry" />
        </mxCell>
        <mxCell id="Fk6wbNM34HIAYSVCCVMZ-42" value="" style="edgeStyle=orthogonalEdgeStyle;rounded=0;orthogonalLoop=1;jettySize=auto;html=1;" parent="WIyWlLk6GJQsqaUBKTNV-1" source="Fk6wbNM34HIAYSVCCVMZ-36" target="Fk6wbNM34HIAYSVCCVMZ-41" edge="1">
          <mxGeometry relative="1" as="geometry" />
        </mxCell>
        <mxCell id="Fk6wbNM34HIAYSVCCVMZ-36" value="*numOfBooks&amp;gt;100" style="rhombus;whiteSpace=wrap;html=1;" parent="WIyWlLk6GJQsqaUBKTNV-1" vertex="1">
          <mxGeometry x="920" y="300" width="140" height="80" as="geometry" />
        </mxCell>
        <mxCell id="Fk6wbNM34HIAYSVCCVMZ-38" value="So luong sach vuot gioi han!" style="shape=parallelogram;perimeter=parallelogramPerimeter;whiteSpace=wrap;html=1;fixedSize=1;" parent="WIyWlLk6GJQsqaUBKTNV-1" vertex="1">
          <mxGeometry x="1150" y="310" width="200" height="60" as="geometry" />
        </mxCell>
        <mxCell id="Fk6wbNM34HIAYSVCCVMZ-40" value="true" style="text;html=1;align=center;verticalAlign=middle;resizable=0;points=[];autosize=1;strokeColor=none;fillColor=none;" parent="WIyWlLk6GJQsqaUBKTNV-1" vertex="1">
          <mxGeometry x="1090" y="310" width="40" height="30" as="geometry" />
        </mxCell>
        <mxCell id="Fk6wbNM34HIAYSVCCVMZ-45" value="" style="edgeStyle=orthogonalEdgeStyle;rounded=0;orthogonalLoop=1;jettySize=auto;html=1;" parent="WIyWlLk6GJQsqaUBKTNV-1" source="Fk6wbNM34HIAYSVCCVMZ-41" target="Fk6wbNM34HIAYSVCCVMZ-44" edge="1">
          <mxGeometry relative="1" as="geometry" />
        </mxCell>
        <mxCell id="Fk6wbNM34HIAYSVCCVMZ-52" value="" style="edgeStyle=orthogonalEdgeStyle;rounded=0;orthogonalLoop=1;jettySize=auto;html=1;" parent="WIyWlLk6GJQsqaUBKTNV-1" source="Fk6wbNM34HIAYSVCCVMZ-41" target="Fk6wbNM34HIAYSVCCVMZ-51" edge="1">
          <mxGeometry relative="1" as="geometry" />
        </mxCell>
        <mxCell id="Fk6wbNM34HIAYSVCCVMZ-41" value="i&amp;lt;*numOfBooks" style="rhombus;whiteSpace=wrap;html=1;" parent="WIyWlLk6GJQsqaUBKTNV-1" vertex="1">
          <mxGeometry x="915" y="460" width="150" height="80" as="geometry" />
        </mxCell>
        <mxCell id="Fk6wbNM34HIAYSVCCVMZ-43" value="false" style="text;html=1;align=center;verticalAlign=middle;resizable=0;points=[];autosize=1;strokeColor=none;fillColor=none;" parent="WIyWlLk6GJQsqaUBKTNV-1" vertex="1">
          <mxGeometry x="940" y="390" width="50" height="30" as="geometry" />
        </mxCell>
        <mxCell id="Fk6wbNM34HIAYSVCCVMZ-48" value="" style="edgeStyle=orthogonalEdgeStyle;rounded=0;orthogonalLoop=1;jettySize=auto;html=1;" parent="WIyWlLk6GJQsqaUBKTNV-1" source="Fk6wbNM34HIAYSVCCVMZ-44" target="Fk6wbNM34HIAYSVCCVMZ-47" edge="1">
          <mxGeometry relative="1" as="geometry" />
        </mxCell>
        <mxCell id="Fk6wbNM34HIAYSVCCVMZ-44" value="books[i].code&lt;br&gt;fgets(books[i].title, sizeof(books[i].title), stdin)&lt;br&gt;fgets(books[i].author, sizeof(books[i].author), stdin)&lt;br&gt;books[i].price)&lt;br&gt;fgets(books[i].category, sizeof(books[i].category), stdin)" style="shape=parallelogram;perimeter=parallelogramPerimeter;whiteSpace=wrap;html=1;fixedSize=1;" parent="WIyWlLk6GJQsqaUBKTNV-1" vertex="1">
          <mxGeometry x="1130" y="450" width="350" height="100" as="geometry" />
        </mxCell>
        <mxCell id="Fk6wbNM34HIAYSVCCVMZ-46" value="true" style="text;html=1;align=center;verticalAlign=middle;resizable=0;points=[];autosize=1;strokeColor=none;fillColor=none;" parent="WIyWlLk6GJQsqaUBKTNV-1" vertex="1">
          <mxGeometry x="1080" y="470" width="40" height="30" as="geometry" />
        </mxCell>
        <mxCell id="Fk6wbNM34HIAYSVCCVMZ-50" style="edgeStyle=orthogonalEdgeStyle;rounded=0;orthogonalLoop=1;jettySize=auto;html=1;entryX=1;entryY=0.667;entryDx=0;entryDy=0;entryPerimeter=0;" parent="WIyWlLk6GJQsqaUBKTNV-1" source="Fk6wbNM34HIAYSVCCVMZ-47" target="Fk6wbNM34HIAYSVCCVMZ-43" edge="1">
          <mxGeometry relative="1" as="geometry">
            <mxPoint x="1580" y="410" as="targetPoint" />
            <Array as="points">
              <mxPoint x="1581" y="410" />
            </Array>
          </mxGeometry>
        </mxCell>
        <mxCell id="Fk6wbNM34HIAYSVCCVMZ-47" value="i++" style="rounded=0;whiteSpace=wrap;html=1;" parent="WIyWlLk6GJQsqaUBKTNV-1" vertex="1">
          <mxGeometry x="1520" y="470" width="120" height="60" as="geometry" />
        </mxCell>
        <mxCell id="Fk6wbNM34HIAYSVCCVMZ-51" value="MENU" style="shape=parallelogram;perimeter=parallelogramPerimeter;whiteSpace=wrap;html=1;fixedSize=1;" parent="WIyWlLk6GJQsqaUBKTNV-1" vertex="1">
          <mxGeometry x="930" y="600" width="120" height="60" as="geometry" />
        </mxCell>
        <mxCell id="Fk6wbNM34HIAYSVCCVMZ-55" value="" style="edgeStyle=orthogonalEdgeStyle;rounded=0;orthogonalLoop=1;jettySize=auto;html=1;" parent="WIyWlLk6GJQsqaUBKTNV-1" source="Fk6wbNM34HIAYSVCCVMZ-53" target="Fk6wbNM34HIAYSVCCVMZ-54" edge="1">
          <mxGeometry relative="1" as="geometry" />
        </mxCell>
        <mxCell id="Fk6wbNM34HIAYSVCCVMZ-53" value="void saveFile(struct book books[], int numOfBooks)" style="rounded=0;whiteSpace=wrap;html=1;" parent="WIyWlLk6GJQsqaUBKTNV-1" vertex="1">
          <mxGeometry x="840" y="720" width="290" height="60" as="geometry" />
        </mxCell>
        <mxCell id="Fk6wbNM34HIAYSVCCVMZ-57" value="" style="edgeStyle=orthogonalEdgeStyle;rounded=0;orthogonalLoop=1;jettySize=auto;html=1;" parent="WIyWlLk6GJQsqaUBKTNV-1" source="Fk6wbNM34HIAYSVCCVMZ-54" target="Fk6wbNM34HIAYSVCCVMZ-56" edge="1">
          <mxGeometry relative="1" as="geometry" />
        </mxCell>
        <mxCell id="Fk6wbNM34HIAYSVCCVMZ-54" value="FILE *file =fopen(&quot;Books.txt&quot;,&quot;w+&quot;)" style="rounded=0;whiteSpace=wrap;html=1;" parent="WIyWlLk6GJQsqaUBKTNV-1" vertex="1">
          <mxGeometry x="872.5" y="830" width="225" height="60" as="geometry" />
        </mxCell>
        <mxCell id="Fk6wbNM34HIAYSVCCVMZ-59" value="" style="edgeStyle=orthogonalEdgeStyle;rounded=0;orthogonalLoop=1;jettySize=auto;html=1;" parent="WIyWlLk6GJQsqaUBKTNV-1" source="Fk6wbNM34HIAYSVCCVMZ-56" target="Fk6wbNM34HIAYSVCCVMZ-58" edge="1">
          <mxGeometry relative="1" as="geometry" />
        </mxCell>
        <mxCell id="Fk6wbNM34HIAYSVCCVMZ-62" value="" style="edgeStyle=orthogonalEdgeStyle;rounded=0;orthogonalLoop=1;jettySize=auto;html=1;" parent="WIyWlLk6GJQsqaUBKTNV-1" source="Fk6wbNM34HIAYSVCCVMZ-56" target="Fk6wbNM34HIAYSVCCVMZ-61" edge="1">
          <mxGeometry relative="1" as="geometry" />
        </mxCell>
        <mxCell id="Fk6wbNM34HIAYSVCCVMZ-56" value="file==NULL" style="rhombus;whiteSpace=wrap;html=1;" parent="WIyWlLk6GJQsqaUBKTNV-1" vertex="1">
          <mxGeometry x="945" y="933" width="80" height="80" as="geometry" />
        </mxCell>
        <mxCell id="Fk6wbNM34HIAYSVCCVMZ-58" value="Khong the mo file de luu tru!" style="shape=parallelogram;perimeter=parallelogramPerimeter;whiteSpace=wrap;html=1;fixedSize=1;" parent="WIyWlLk6GJQsqaUBKTNV-1" vertex="1">
          <mxGeometry x="1090" y="943" width="200" height="60" as="geometry" />
        </mxCell>
        <mxCell id="Fk6wbNM34HIAYSVCCVMZ-60" value="true" style="text;html=1;align=center;verticalAlign=middle;resizable=0;points=[];autosize=1;strokeColor=none;fillColor=none;" parent="WIyWlLk6GJQsqaUBKTNV-1" vertex="1">
          <mxGeometry x="1040" y="938" width="40" height="30" as="geometry" />
        </mxCell>
        <mxCell id="Fk6wbNM34HIAYSVCCVMZ-65" value="" style="edgeStyle=orthogonalEdgeStyle;rounded=0;orthogonalLoop=1;jettySize=auto;html=1;" parent="WIyWlLk6GJQsqaUBKTNV-1" source="Fk6wbNM34HIAYSVCCVMZ-61" target="Fk6wbNM34HIAYSVCCVMZ-64" edge="1">
          <mxGeometry relative="1" as="geometry" />
        </mxCell>
        <mxCell id="Fk6wbNM34HIAYSVCCVMZ-71" value="" style="edgeStyle=orthogonalEdgeStyle;rounded=0;orthogonalLoop=1;jettySize=auto;html=1;" parent="WIyWlLk6GJQsqaUBKTNV-1" source="Fk6wbNM34HIAYSVCCVMZ-61" target="Fk6wbNM34HIAYSVCCVMZ-70" edge="1">
          <mxGeometry relative="1" as="geometry" />
        </mxCell>
        <mxCell id="Fk6wbNM34HIAYSVCCVMZ-61" value="i &amp;lt; numOfBooks" style="rhombus;whiteSpace=wrap;html=1;" parent="WIyWlLk6GJQsqaUBKTNV-1" vertex="1">
          <mxGeometry x="912.5" y="1110" width="145" height="80" as="geometry" />
        </mxCell>
        <mxCell id="Fk6wbNM34HIAYSVCCVMZ-63" value="false" style="text;html=1;align=center;verticalAlign=middle;resizable=0;points=[];autosize=1;strokeColor=none;fillColor=none;" parent="WIyWlLk6GJQsqaUBKTNV-1" vertex="1">
          <mxGeometry x="935" y="1028" width="50" height="30" as="geometry" />
        </mxCell>
        <mxCell id="Fk6wbNM34HIAYSVCCVMZ-68" value="" style="edgeStyle=orthogonalEdgeStyle;rounded=0;orthogonalLoop=1;jettySize=auto;html=1;" parent="WIyWlLk6GJQsqaUBKTNV-1" source="Fk6wbNM34HIAYSVCCVMZ-64" target="Fk6wbNM34HIAYSVCCVMZ-67" edge="1">
          <mxGeometry relative="1" as="geometry" />
        </mxCell>
        <mxCell id="Fk6wbNM34HIAYSVCCVMZ-64" value="&lt;div&gt;fprintf(file, &quot;Ma sach: %s&quot;, books[i].code);&lt;/div&gt;&lt;div&gt;&lt;span style=&quot;background-color: initial;&quot;&gt;fprintf(file, &quot;Ten sach: %s&quot;, books[i].title);&lt;/span&gt;&lt;/div&gt;&lt;div&gt;&amp;nbsp; fprintf(file, &quot;Tac gia: %s&quot;, books[i].author);&lt;/div&gt;&lt;div&gt;&amp;nbsp; &amp;nbsp; &amp;nbsp; fprintf(file, &quot;Gia tien: %.2f\n&quot;, books[i].price);&lt;/div&gt;&lt;div&gt;&amp;nbsp; &amp;nbsp; &amp;nbsp; &amp;nbsp;fprintf(file, &quot;The loai: %s&quot;, books[i].category)&lt;/div&gt;&lt;div&gt;&lt;span style=&quot;background-color: initial;&quot;&gt;fprintf(file, &quot;------------------------\n&quot;);&lt;/span&gt;&lt;/div&gt;" style="rounded=0;whiteSpace=wrap;html=1;" parent="WIyWlLk6GJQsqaUBKTNV-1" vertex="1">
          <mxGeometry x="1130" y="1095" width="399" height="110" as="geometry" />
        </mxCell>
        <mxCell id="Fk6wbNM34HIAYSVCCVMZ-66" value="true" style="text;html=1;align=center;verticalAlign=middle;resizable=0;points=[];autosize=1;strokeColor=none;fillColor=none;" parent="WIyWlLk6GJQsqaUBKTNV-1" vertex="1">
          <mxGeometry x="1065" y="1120" width="40" height="30" as="geometry" />
        </mxCell>
        <mxCell id="Fk6wbNM34HIAYSVCCVMZ-69" style="edgeStyle=orthogonalEdgeStyle;rounded=0;orthogonalLoop=1;jettySize=auto;html=1;" parent="WIyWlLk6GJQsqaUBKTNV-1" source="Fk6wbNM34HIAYSVCCVMZ-67" target="Fk6wbNM34HIAYSVCCVMZ-63" edge="1">
          <mxGeometry relative="1" as="geometry">
            <mxPoint x="1639.9999999999995" y="1050" as="targetPoint" />
            <Array as="points">
              <mxPoint x="1640" y="1043" />
            </Array>
          </mxGeometry>
        </mxCell>
        <mxCell id="Fk6wbNM34HIAYSVCCVMZ-67" value="i++" style="rounded=0;whiteSpace=wrap;html=1;" parent="WIyWlLk6GJQsqaUBKTNV-1" vertex="1">
          <mxGeometry x="1580" y="1120" width="120" height="60" as="geometry" />
        </mxCell>
        <mxCell id="Fk6wbNM34HIAYSVCCVMZ-73" value="" style="edgeStyle=orthogonalEdgeStyle;rounded=0;orthogonalLoop=1;jettySize=auto;html=1;" parent="WIyWlLk6GJQsqaUBKTNV-1" source="Fk6wbNM34HIAYSVCCVMZ-70" target="Fk6wbNM34HIAYSVCCVMZ-72" edge="1">
          <mxGeometry relative="1" as="geometry" />
        </mxCell>
        <mxCell id="Fk6wbNM34HIAYSVCCVMZ-70" value="fclose(file)" style="rounded=0;whiteSpace=wrap;html=1;" parent="WIyWlLk6GJQsqaUBKTNV-1" vertex="1">
          <mxGeometry x="925" y="1250" width="120" height="60" as="geometry" />
        </mxCell>
        <mxCell id="Fk6wbNM34HIAYSVCCVMZ-72" value="Thong tin da duoc luu vao file Books." style="shape=parallelogram;perimeter=parallelogramPerimeter;whiteSpace=wrap;html=1;fixedSize=1;" parent="WIyWlLk6GJQsqaUBKTNV-1" vertex="1">
          <mxGeometry x="867.5" y="1360" width="235" height="60" as="geometry" />
        </mxCell>
        <mxCell id="Fk6wbNM34HIAYSVCCVMZ-74" value="false" style="text;html=1;align=center;verticalAlign=middle;resizable=0;points=[];autosize=1;strokeColor=none;fillColor=none;" parent="WIyWlLk6GJQsqaUBKTNV-1" vertex="1">
          <mxGeometry x="930" y="550" width="50" height="30" as="geometry" />
        </mxCell>
        <mxCell id="Fk6wbNM34HIAYSVCCVMZ-77" value="" style="edgeStyle=orthogonalEdgeStyle;rounded=0;orthogonalLoop=1;jettySize=auto;html=1;" parent="WIyWlLk6GJQsqaUBKTNV-1" source="Fk6wbNM34HIAYSVCCVMZ-75" target="Fk6wbNM34HIAYSVCCVMZ-76" edge="1">
          <mxGeometry relative="1" as="geometry" />
        </mxCell>
        <mxCell id="Fk6wbNM34HIAYSVCCVMZ-75" value="void displayBooksFile()" style="rounded=0;whiteSpace=wrap;html=1;" parent="WIyWlLk6GJQsqaUBKTNV-1" vertex="1">
          <mxGeometry x="895" y="1500" width="180" height="60" as="geometry" />
        </mxCell>
        <mxCell id="Fk6wbNM34HIAYSVCCVMZ-79" value="" style="edgeStyle=orthogonalEdgeStyle;rounded=0;orthogonalLoop=1;jettySize=auto;html=1;" parent="WIyWlLk6GJQsqaUBKTNV-1" source="Fk6wbNM34HIAYSVCCVMZ-76" target="Fk6wbNM34HIAYSVCCVMZ-78" edge="1">
          <mxGeometry relative="1" as="geometry" />
        </mxCell>
        <mxCell id="Fk6wbNM34HIAYSVCCVMZ-76" value="&lt;div&gt;char content[1000];&lt;/div&gt;&lt;div&gt;FILE *file = fopen(&quot;Books.txt&quot;,&quot;r&quot;);&lt;span style=&quot;&quot;&gt;&lt;/span&gt;&lt;/div&gt;" style="rounded=0;whiteSpace=wrap;html=1;" parent="WIyWlLk6GJQsqaUBKTNV-1" vertex="1">
          <mxGeometry x="867.5" y="1600" width="235" height="60" as="geometry" />
        </mxCell>
        <mxCell id="Fk6wbNM34HIAYSVCCVMZ-81" value="" style="edgeStyle=orthogonalEdgeStyle;rounded=0;orthogonalLoop=1;jettySize=auto;html=1;" parent="WIyWlLk6GJQsqaUBKTNV-1" source="Fk6wbNM34HIAYSVCCVMZ-78" target="Fk6wbNM34HIAYSVCCVMZ-80" edge="1">
          <mxGeometry relative="1" as="geometry" />
        </mxCell>
        <mxCell id="Fk6wbNM34HIAYSVCCVMZ-84" value="" style="edgeStyle=orthogonalEdgeStyle;rounded=0;orthogonalLoop=1;jettySize=auto;html=1;" parent="WIyWlLk6GJQsqaUBKTNV-1" source="Fk6wbNM34HIAYSVCCVMZ-78" target="Fk6wbNM34HIAYSVCCVMZ-83" edge="1">
          <mxGeometry relative="1" as="geometry" />
        </mxCell>
        <mxCell id="Fk6wbNM34HIAYSVCCVMZ-78" value="file==NULL" style="rhombus;whiteSpace=wrap;html=1;" parent="WIyWlLk6GJQsqaUBKTNV-1" vertex="1">
          <mxGeometry x="945" y="1710" width="80" height="80" as="geometry" />
        </mxCell>
        <mxCell id="Fk6wbNM34HIAYSVCCVMZ-80" value="Khong the mo file de doc!" style="shape=parallelogram;perimeter=parallelogramPerimeter;whiteSpace=wrap;html=1;fixedSize=1;" parent="WIyWlLk6GJQsqaUBKTNV-1" vertex="1">
          <mxGeometry x="1080" y="1720" width="190" height="60" as="geometry" />
        </mxCell>
        <mxCell id="Fk6wbNM34HIAYSVCCVMZ-82" value="true" style="text;html=1;align=center;verticalAlign=middle;resizable=0;points=[];autosize=1;strokeColor=none;fillColor=none;" parent="WIyWlLk6GJQsqaUBKTNV-1" vertex="1">
          <mxGeometry x="1035" y="1720" width="40" height="30" as="geometry" />
        </mxCell>
        <mxCell id="Fk6wbNM34HIAYSVCCVMZ-87" value="" style="edgeStyle=orthogonalEdgeStyle;rounded=0;orthogonalLoop=1;jettySize=auto;html=1;" parent="WIyWlLk6GJQsqaUBKTNV-1" source="Fk6wbNM34HIAYSVCCVMZ-83" target="Fk6wbNM34HIAYSVCCVMZ-86" edge="1">
          <mxGeometry relative="1" as="geometry" />
        </mxCell>
        <mxCell id="Fk6wbNM34HIAYSVCCVMZ-83" value="fread(content,sizeof(char),sizeof(content),file)" style="rounded=0;whiteSpace=wrap;html=1;" parent="WIyWlLk6GJQsqaUBKTNV-1" vertex="1">
          <mxGeometry x="847.5" y="1850" width="275" height="60" as="geometry" />
        </mxCell>
        <mxCell id="Fk6wbNM34HIAYSVCCVMZ-85" value="false" style="text;html=1;align=center;verticalAlign=middle;resizable=0;points=[];autosize=1;strokeColor=none;fillColor=none;" parent="WIyWlLk6GJQsqaUBKTNV-1" vertex="1">
          <mxGeometry x="985" y="1798" width="50" height="30" as="geometry" />
        </mxCell>
        <mxCell id="Fk6wbNM34HIAYSVCCVMZ-89" value="" style="edgeStyle=orthogonalEdgeStyle;rounded=0;orthogonalLoop=1;jettySize=auto;html=1;" parent="WIyWlLk6GJQsqaUBKTNV-1" source="Fk6wbNM34HIAYSVCCVMZ-86" target="Fk6wbNM34HIAYSVCCVMZ-88" edge="1">
          <mxGeometry relative="1" as="geometry" />
        </mxCell>
        <mxCell id="Fk6wbNM34HIAYSVCCVMZ-86" value="Thong tin sach tu file:&lt;br&gt;printf(&quot;%s&quot;,content)" style="shape=parallelogram;perimeter=parallelogramPerimeter;whiteSpace=wrap;html=1;fixedSize=1;" parent="WIyWlLk6GJQsqaUBKTNV-1" vertex="1">
          <mxGeometry x="892.5" y="1950" width="185" height="60" as="geometry" />
        </mxCell>
        <mxCell id="Fk6wbNM34HIAYSVCCVMZ-88" value="fclose(file)" style="rounded=0;whiteSpace=wrap;html=1;" parent="WIyWlLk6GJQsqaUBKTNV-1" vertex="1">
          <mxGeometry x="925" y="2050" width="120" height="60" as="geometry" />
        </mxCell>
      </root>
    </mxGraphModel>
  </diagram>
</mxfile>
